<?xml version="1.0" encoding="UTF-8"?> <svg xmlns="http://www.w3.org/2000/svg" data-v-fde0c5aa="" viewBox="0 0 300 300" class="iconAbove"><!----><defs data-v-fde0c5aa=""><!----></defs><rect data-v-fde0c5aa="" fill="#AB0E2D" x="0" y="0" width="300px" height="300px" class="logo-background-square"></rect><defs data-v-fde0c5aa=""><!----></defs><g data-v-fde0c5aa="" id="07d13718-97bd-45c3-825e-f95570e55a73" fill="#ffffff" transform="matrix(8.801742553710938,0,0,8.801742553710938,17.18169493749995,152.88278933486288)"><path d="M3.85 6.59C2.03 6.59 0.81 7.90 0.81 10.15C0.81 11.37 1.57 12.17 3.11 12.17C5.28 12.17 5.66 10.32 5.66 10.32L5.40 10.21C5.40 10.22 4.90 11.84 3.42 11.84C2.87 11.84 2.39 11.51 2.39 10.61C2.39 10.33 2.41 10.07 2.42 9.81C4.44 9.80 5.63 9.20 5.63 8.01C5.63 7.15 5.12 6.59 3.85 6.59ZM4.26 6.94C4.91 6.94 5.28 7.41 5.28 8.01C5.28 8.89 4.55 9.48 2.46 9.49C2.70 7.70 3.53 6.94 4.26 6.94ZM9.76 7.62C9.76 8.18 10.21 8.62 10.77 8.62C11.07 8.62 11.37 8.48 11.55 8.26C11.56 8.36 11.58 8.46 11.58 8.55C11.58 10.25 10.35 11.86 9.10 11.86C8.58 11.86 8.32 11.45 8.32 10.99C8.32 9.97 8.88 8.79 8.88 7.84C8.88 7.10 8.47 6.59 7.63 6.59C6.68 6.59 6.31 7.29 6.31 7.29L6.52 7.46C6.52 7.46 6.87 6.90 7.36 6.87C7.31 8.08 6.82 9.03 6.82 10.21C6.82 11.31 7.63 12.17 8.85 12.17C11.16 12.17 11.90 9.76 11.90 8.55C11.90 7.83 11.80 7.46 11.73 7.31L11.73 7.29C11.73 7.28 11.72 7.27 11.72 7.27C11.58 6.87 11.20 6.59 10.77 6.59C10.21 6.59 9.76 7.06 9.76 7.62ZM15.58 6.59C13.76 6.59 12.54 7.90 12.54 10.15C12.54 11.37 13.30 12.17 14.84 12.17C17.01 12.17 17.39 10.32 17.39 10.32L17.14 10.21C17.14 10.22 16.63 11.84 15.15 11.84C14.60 11.84 14.13 11.51 14.13 10.61C14.13 10.33 14.14 10.07 14.15 9.81C16.17 9.80 17.36 9.20 17.36 8.01C17.36 7.15 16.86 6.59 15.58 6.59ZM15.99 6.94C16.65 6.94 17.01 7.41 17.01 8.01C17.01 8.89 16.28 9.48 14.20 9.49C14.43 7.70 15.26 6.94 15.99 6.94ZM24.09 8.36C24.09 7.25 23.44 6.59 22.34 6.59C21.38 6.59 20.87 7.17 20.55 7.91L20.55 7.83C20.55 7.04 20.08 6.59 19.21 6.59C18.79 6.59 18.42 6.78 18.16 7.10L18.37 7.27C18.55 7.04 18.79 6.90 19.07 6.87L18.61 9.46C18.51 10.05 18.38 10.57 18.38 11.00C18.38 11.68 18.86 12.17 19.73 12.17C20.15 12.17 20.51 11.98 20.78 11.66L20.57 11.49C20.38 11.72 20.13 11.86 19.85 11.89L20.33 9.27C20.71 7.88 21.31 7.01 21.92 7.01C22.30 7.01 22.50 7.17 22.50 7.62C22.50 8.44 21.99 10.07 21.99 11.02C21.99 11.76 22.43 12.17 23.27 12.17C24.18 12.17 24.44 11.66 24.44 11.66L24.23 11.49C24.23 11.49 23.90 11.89 23.53 11.89C23.59 10.68 24.09 9.24 24.09 8.36ZM28.07 4.52C28.07 4.52 27.43 4.65 26.35 4.65C26.22 5.38 26.08 6.06 25.97 6.72L25.26 6.72L25.23 6.97L25.91 6.97C25.59 8.72 25.34 10.14 25.34 10.78C25.34 11.66 26.04 12.17 26.91 12.17C28.18 12.17 28.77 11.14 29.05 9.95L28.80 9.87C28.62 10.64 28.08 11.77 27.33 11.77C27.08 11.77 26.89 11.62 26.89 11.33C26.89 10.81 27.26 8.71 27.59 6.97L29.34 6.97L29.37 6.72L27.64 6.72C27.87 5.50 28.07 4.52 28.07 4.52Z"></path></g><defs data-v-fde0c5aa=""><!----></defs><g data-v-fde0c5aa="" id="a71be652-0cbb-4017-b841-ae22d780840d" stroke="none" fill="#E46F54" transform="matrix(1.5018866062164307,0,0,1.5018866062164307,74.90566386140813,32.238249528549964)"><path d="M35.356 21.357a3.28 3.28 0 0 1-6.558 0V8.447a3.278 3.278 0 1 1 6.558 0v12.91z"></path><path d="M81.983 14.93h-8.989v6.427c0 2.786-2.265 5.052-5.05 5.052s-5.05-2.266-5.05-5.052V14.93H37.128v6.427a5.057 5.057 0 0 1-5.051 5.052 5.057 5.057 0 0 1-5.05-5.052V14.93h-8.989c-5.434 0-9.838 4.405-9.838 9.838v7.378h83.621v-7.378c0-5.433-4.404-9.838-9.838-9.838z"></path><path d="M71.224 21.357a3.28 3.28 0 0 1-6.558 0V8.447a3.278 3.278 0 1 1 6.558 0v12.91zM8.2 34.884v38.021h-.021v2.217H8.2v9.873a9.837 9.837 0 0 0 9.838 9.838h63.945a9.837 9.837 0 0 0 9.838-9.838V34.884H8.2zm81.162 19.395H71.678V37.344h17.685v16.935zm-60.455 3.123v15.503h-.417c-2.731-4.83-2.66-11.041.417-15.503zm22.757 15.503H51.4V58.307c2.335 4.375 2.52 10.1.264 14.598zm-2.48-16.409v16.409H31.123V56.496h18.061zM31.99 54.279c1.739-1.228 3.894-2.102 6.485-2.452 3.985-.54 7.217.503 9.638 2.452H31.99zm17.194-.773c-2.22-1.516-4.812-2.543-7.51-2.909-3.864-.523-7.549.601-10.552 2.739V37.344h18.062v16.162zM51.4 37.344h18.061V54.28H51.4V37.344zM38.021 79.875c-2.803-.616-5.106-1.897-6.898-3.586v-1.167h18.062v1.228c-1.934 1.904-4.572 3.26-7.965 3.675-1.024.125-1.659 1.393-.253 1.221 3.104-.38 5.901-1.468 8.218-3.128v14.257H31.123V78.617a16.766 16.766 0 0 0 5.669 2.432c.704.155 2.412-.914 1.229-1.174zM51.4 76.194c.327-.343.64-.699.935-1.072h17.126v17.252H51.4v-16.18zm2.4-3.289a16.666 16.666 0 0 0 1.869-5.748c.562-4.112-.772-7.798-3.171-10.661h16.963v16.409H53.8zm17.878-16.409h17.685v16.409H71.678V56.496zM28.907 37.344V54.28H10.66V37.344h18.247zM10.66 56.496h17.113c-1.357 1.662-2.424 3.568-3.084 5.611-1.24 3.84-.645 7.616 1.114 10.798H10.66V56.496zm0 28.499v-9.873h16.644a16.674 16.674 0 0 0 1.604 1.729v15.523h-10.87c-4.068 0-7.378-3.311-7.378-7.379zm71.323 7.379H71.678V75.122h17.685v9.873c-.001 4.068-3.311 7.379-7.38 7.379z"></path></g><!----></svg> 